<?xml version="1.0" standalone="no"?>
<!DOCTYPE svg PUBLIC "-//W3C//DTD SVG 20010904//EN"
 "http://www.w3.org/TR/2001/REC-SVG-20010904/DTD/svg10.dtd">
<svg version="1.0" xmlns="http://www.w3.org/2000/svg"
 width="1023.000000pt" height="1024.000000pt" viewBox="0 0 1023.000000 1024.000000"
 preserveAspectRatio="xMidYMid meet">
<metadata>
Created by potrace 1.16, written by Peter Selinger 2001-2019
</metadata>
<g transform="translate(0.000000,1024.000000) scale(0.100000,-0.100000)"
fill="#000000" stroke="none">
<path d="M4930 7663 c-95 -87 -202 -185 -239 -218 -38 -33 -122 -109 -187
-170 -66 -60 -191 -175 -279 -255 -318 -290 -421 -385 -485 -444 -36 -34 -139
-129 -230 -212 -91 -83 -280 -256 -420 -384 -140 -129 -275 -253 -300 -275
-25 -23 -126 -116 -225 -205 -99 -90 -224 -204 -277 -254 l-98 -90 0 -93 0
-93 345 0 345 0 0 -1265 0 -1265 963 0 962 0 -1 595 -2 595 299 0 c165 0 302
1 306 3 9 3 9 25 11 -625 l2 -568 960 0 961 0 -1 1168 c0 642 -1 1211 0 1265
l0 97 345 0 345 0 0 94 0 94 -217 199 c-120 109 -252 230 -293 268 -41 39
-120 111 -175 160 -55 49 -125 113 -155 141 -86 80 -385 353 -900 823 -261
239 -522 478 -580 531 -402 371 -590 540 -600 540 -5 0 -86 -71 -180 -157z
m655 -708 c197 -182 415 -381 484 -444 412 -374 772 -701 886 -806 71 -66 202
-185 289 -265 l159 -145 -197 -3 -196 -2 0 -1265 0 -1265 -635 0 -635 0 0 595
0 595 -630 0 -630 0 0 -595 0 -595 -635 0 -635 0 0 1265 0 1265 -194 2 -193 3
230 210 c126 116 298 273 381 350 84 77 246 226 361 330 224 203 449 409 530
485 28 25 181 165 340 310 160 145 325 297 368 338 l78 73 57 -53 c32 -29 219
-202 417 -383z"/>
<path d="M4480 5950 l0 -270 270 0 270 0 0 270 0 270 -270 0 -270 0 0 -270z"/>
<path d="M5200 5950 l0 -270 270 0 270 0 0 270 0 270 -270 0 -270 0 0 -270z"/>
<path d="M4480 5230 l0 -270 270 0 270 0 0 270 0 270 -270 0 -270 0 0 -270z"/>
<path d="M5200 5230 l0 -270 270 0 270 0 0 270 0 270 -270 0 -270 0 0 -270z"/>
</g>
</svg>
